<?xml version="1.0" standalone="no"?>
<!DOCTYPE svg PUBLIC "-//W3C//DTD SVG 1.1//EN" "http://www.w3.org/Graphics/SVG/1.1/DTD/svg11.dtd" >
<!--
2013-9-30: Created.
-->
<svg>
<metadata>
Created by iconfont
</metadata>
<defs>

<font id="iconfont" horiz-adv-x="1024" >
  <font-face
    font-family="iconfont"
    font-weight="500"
    font-stretch="normal"
    units-per-em="1024"
    ascent="896"
    descent="-128"
  />
    <missing-glyph />
    
    <glyph glyph-name="jiahao1" unicode="&#59007;" d="M512 894C230.304 894 2 665.696 2 384s228.304-510 510-510 510 228.304 510 510S793.696 894 512 894z m309.884-819.884c-40.24-40.242-87.158-71.92-139.352-93.932-53.99-22.91-111.364-34.466-170.532-34.466-59.168 0-116.542 11.556-170.532 34.366-52.194 22.114-99.01 53.69-139.352 93.932-40.242 40.24-71.92 87.158-93.932 139.354C85.274 267.458 73.718 324.832 73.718 384c0 59.168 11.556 116.542 34.366 170.532 22.114 52.194 53.69 99.01 93.932 139.352 40.24 40.242 87.158 71.92 139.354 93.932C395.458 810.726 452.832 822.282 512 822.282c59.168 0 116.542-11.556 170.532-34.366 52.194-22.114 99.01-53.69 139.352-93.932 40.242-40.24 71.92-87.158 93.932-139.354 22.91-54.088 34.466-111.462 34.466-170.63 0-59.168-11.556-116.542-34.366-170.532-22.114-52.194-53.69-99.11-94.032-139.352zM731.14 419.36H548.36v182.782c0 19.822-16.038 35.86-35.86 35.86s-35.86-16.038-35.86-35.86v-182.782h-183.78c-19.82 0-35.858-16.038-35.858-35.86s16.038-35.86 35.86-35.86h183.78v-181.786c0-19.822 16.036-35.86 35.858-35.86 19.822 0 35.86 16.038 35.86 35.86V347.64h182.782c19.822 0 35.86 16.038 35.86 35.86s-16.038 35.86-35.86 35.86z"  horiz-adv-x="1024" />

    
    <glyph glyph-name="wenhao" unicode="&#59008;" d="M512 896C229.2 896 0 666.8 0 384s229.2-512 512-512 512 229.2 512 512S794.8 896 512 896z m311.1-823.1c-40.4-40.4-87.5-72.2-139.9-94.3-54.2-23-111.8-34.6-171.2-34.6-59.4 0-117 11.6-171.2 34.5-52.4 22.2-99.4 53.9-139.9 94.3-40.4 40.4-72.2 87.5-94.3 139.9C83.6 267 72 324.6 72 384c0 59.4 11.6 117 34.5 171.2 22.2 52.4 53.9 99.4 94.3 139.9 40.4 40.4 87.5 72.2 139.9 94.3C395 812.4 452.6 824 512 824c59.4 0 117-11.6 171.2-34.5 52.4-22.2 99.4-53.9 139.9-94.3 40.4-40.4 72.2-87.5 94.3-139.9C940.4 501 952 443.4 952 384c0-59.4-11.6-117-34.5-171.2-22.2-52.4-53.9-99.5-94.4-139.9z m-316.3 159.2c-1.2 0-2.4 0.1-3.6 0.2-19.8 1.9-34.2 19.6-32.3 39.4 4.9 49.9 41.5 90.2 81.8 130.5 64.5 64.5 65.6 85 66.7 106.7 1.3 25.3-8 49.8-26.4 69.1-20.9 22-50.5 34.6-81.2 34.6h-0.2c-59.1-0.1-107.3-48.3-107.3-107.5 0-19.9-16.1-36-36-36s-36 16.1-36 36c0 47.9 18.6 92.9 52.4 126.8 33.8 33.9 78.8 52.6 126.7 52.7 50.5 0.1 99.3-20.7 133.8-57 32.1-33.8 48.5-77.3 46.1-122.5-2.5-46.3-16.7-82.8-87.7-153.8-36-36-58.7-63-61-86.7-1.8-18.6-17.5-32.5-35.8-32.5z m-44.6-105.3a43.3 43.3 0 1 1 86.6 0c0 23.914-19.386 43.3-43.3 43.3-23.914 0-43.3-19.386-43.3-43.3z"  horiz-adv-x="1024" />

    
    <glyph glyph-name="wenhao1" unicode="&#59009;" d="M512 896C229.2 896 0 666.8 0 384s229.2-512 512-512 512 229.2 512 512S794.8 896 512 896z m-6.5-812.6c-23.9 0-43.3 19.4-43.3 43.3S481.6 170 505.5 170s43.3-19.4 43.3-43.3-19.4-43.3-43.3-43.3z m185.8 421.6c-2.5-46.3-16.7-82.8-87.7-153.8-36-36-58.7-63-61-86.7-1.8-18.6-17.5-32.5-35.8-32.5-1.2 0-2.4 0.1-3.6 0.2-19.8 1.9-34.2 19.6-32.3 39.4 4.9 49.9 41.5 90.2 81.8 130.5 64.5 64.5 65.6 85 66.7 106.7 1.3 25.3-8 49.8-26.4 69.1-20.9 22-50.5 34.6-81.2 34.6h-0.2c-59.1-0.1-107.3-48.3-107.3-107.5 0-19.9-16.1-36-36-36s-36 16.1-36 36c0 47.9 18.6 92.9 52.4 126.8 33.8 33.9 78.8 52.6 126.7 52.7 50.5 0.1 99.3-20.7 133.8-57 32.2-33.7 48.5-77.2 46.1-122.5z"  horiz-adv-x="1024" />

    
    <glyph glyph-name="guizeguanli" unicode="&#59019;" d="M297.804-97.066a30.118 30.118 0 1 0 0 60.236h428.392c16.634 0 30.12-13.484 30.12-30.118s-13.486-30.118-30.12-30.118H297.804zM150.588 811.764c-33.266 0-60.236-26.968-60.236-60.234v-556.274a60.236 60.236 0 0 1 60.236-60.234h722.824a60.236 60.236 0 0 1 60.236 60.234V751.53c0 33.266-26.97 60.234-60.236 60.234H150.588z m0 60.236h722.824c66.534 0 120.47-53.936 120.47-120.47v-556.274a120.47 120.47 0 0 0-120.47-120.47H150.588a120.47 120.47 0 0 0-120.47 120.47V751.53C30.118 818.064 84.054 872 150.588 872zM403.276 489.686l-165.528-150.166c-12.374-10.608-30.94-9.448-41.898 2.62-10.956 12.064-10.328 30.656 1.42 41.954l178.66 162.154c16.994 15.468 43.248 14.476 59.03-2.23l129.384-137.094L783.54 664.79c10.78 12.676 29.792 14.212 42.466 3.434 12.676-10.78 14.212-29.792 3.434-42.466L597.172 352.53c-1.506-1.806-1.506-1.806-3.132-3.372a42.164 42.164 0 0 0-59.632 1.686l-131.132 138.842z"  horiz-adv-x="1024" />

    
    <glyph glyph-name="sanmuluguanli" unicode="&#59020;" d="M243.408 659.844h373.48v-72.24h-373.48zM243.408 465.812h296.906v-72.24H243.408zM243.408 271.78h221.054v-72.24H243.408zM1014.5 698.104L557.518 89.32l-54.476 40.892L960.02 738.992zM752-32c17.674 0 32-14.326 32-32s-14.326-32-32-32H112c-53.02 0-96 42.98-96 96V768c0 53.02 42.98 96 96 96h640c17.674 0 32-14.326 32-32s-14.326-32-32-32H112c-17.674 0-32-14.326-32-32v-768c0-17.674 14.326-32 32-32h640z"  horiz-adv-x="1024" />

    
    <glyph glyph-name="shujuzidianguanli" unicode="&#59021;" d="M152 804c-33.138 0-60-26.862-60-60v-720c0-33.138 26.862-60 60-60h720c33.138 0 60 26.862 60 60V744c0 33.138-26.862 60-60 60H152z m0 60h720c66.274 0 120-53.726 120-120v-720c0-66.274-53.726-120-120-120H152c-66.274 0-120 53.726-120 120V744c0 66.274 53.726 120 120 120zM242 246.84c0 16.568 13.432 30 30 30 16.568 0 30-13.432 30-30v-137.1c0-16.568-13.432-30-30-30-16.568 0-30 13.432-30 30v137.1z m160.02 205.74c0 16.568 13.432 30 30 30 16.568 0 30-13.432 30-30v-342.84c0-16.568-13.432-30-30-30-16.568 0-30 13.432-30 30V452.58z m159.96 205.68c0 16.568 13.432 30 30 30 16.568 0 30-13.432 30-30v-548.52c0-16.568-13.432-30-30-30-16.568 0-30 13.432-30 30V658.26zM722 315.42c0 16.568 13.432 30 30 30 16.568 0 30-13.432 30-30v-205.68c0-16.568-13.432-30-30-30-16.568 0-30 13.432-30 30V315.42z"  horiz-adv-x="1024" />

    
    <glyph glyph-name="xitongshezhi" unicode="&#59022;" d="M579.2 835.2c25.6-99.2 118.4-172.8 230.4-172.8 19.2 0 41.6 3.2 64 9.6l70.4-118.4c-44.8-41.6-70.4-102.4-70.4-166.4s25.6-121.6 70.4-166.4L873.6 96c-19.2 6.4-41.6 9.6-64 9.6-112 0-204.8-73.6-230.4-172.8h-140.8C416 32 320 105.6 211.2 105.6c-19.2 0-41.6-3.2-64-9.6l-70.4 118.4C121.6 259.2 147.2 320 147.2 384s-25.6 121.6-70.4 166.4L147.2 672c22.4-6.4 41.6-9.6 64-9.6C320 662.4 416 736 441.6 835.2h137.6zM633.6 896H390.4c0-96-80-172.8-179.2-172.8-32 0-64 9.6-89.6 22.4L0 534.4c54.4-32 89.6-86.4 89.6-150.4S54.4 262.4 0 233.6l121.6-211.2c25.6 12.8 57.6 22.4 89.6 22.4 99.2 0 179.2-76.8 179.2-172.8h243.2c0 96 80 172.8 179.2 172.8 32 0 64-9.6 89.6-22.4L1024 233.6c-54.4 32-89.6 86.4-89.6 150.4s38.4 121.6 89.6 150.4L902.4 745.6c-25.6-12.8-57.6-22.4-89.6-22.4-99.2 0-179.2 76.8-179.2 172.8zM512 236.8c-83.2 0-150.4 64-150.4 147.2 0 80 67.2 147.2 150.4 147.2s150.4-64 150.4-147.2c0-80-67.2-147.2-150.4-147.2z m0 236.8c-51.2 0-89.6-38.4-89.6-89.6 0-51.2 38.4-89.6 89.6-89.6 51.2 0 89.6 38.4 89.6 89.6 0 51.2-41.6 89.6-89.6 89.6z"  horiz-adv-x="1024" />

    
    <glyph glyph-name="bianji" unicode="&#59024;" d="M110.54 49.896c-29.374 0-48.956 23.5-48.956 48.96v7.832l43.082 191.916c1.96 9.792 5.876 19.584 13.71 27.416L623.626 829.312c19.582 19.584 48.958 19.584 68.54 0l180.168-180.166c19.582-19.584 19.582-48.96 0-68.54L371 77.31c-7.834-7.832-21.54-13.708-33.292-13.708l-227.166-13.708zM183 277.06l-33.292-146.874L324 141.938l473.916 473.916-139.04 139.04L183 277.064z m759.834-352.5H81.166c-21.54 0-39.166 17.626-39.166 39.168 0 21.54 17.626 39.166 39.166 39.166h861.668c21.54 0 39.166-17.626 39.166-39.166 0-21.542-17.626-39.168-39.166-39.168z"  horiz-adv-x="1024" />

    
    <glyph glyph-name="peizhi" unicode="&#59023;" d="M974.668 121.21a38.242 38.242 0 0 1-10.556 19.742L738.388 365.17a362.936 362.936 0 0 1 24.22 105.86c0.586 2.67 0.904 5.44 0.904 8.282l-0.24 2.558c0.254 5.596 0.39 11.226 0.39 16.886C763.662 700.476 599.868 864 397.822 864c-52.1 0-139.16-26.552-146.502-30.496-7.34-3.944-15.038-4.384-21.062-10.018-4.018-3.756-6.8-7.518-8.352-11.286-6.964-14.328-4.5-32.072 7.42-43.972l172.642-173.44-99.204-99.814-173.032 173.82c-12.506 12.5-31.492 14.588-46.184 6.28-6.004-3.46-9.788-6.712-11.352-9.756a38.16 38.16 0 0 1-7.13-14.67C43.846 604.394 32 552.96 32 498.756c0-201.724 163.776-365.246 365.82-365.246 46.274 0 90.532 8.594 131.282 24.246l197.96-196.596a148.708 148.708 0 0 1 26.56-26.424l1.976-1.964a38.304 38.304 0 0 1 14.666-9.166C791.97-88.866 817.14-96 843.98-96 925.73-96 992-29.834 992 51.78c0 25.096-6.276 48.728-17.332 69.43z m-131.044-141.806a71.484 71.484 0 0 0-36.916 10.212l-24.644 24.576a72.18 72.18 0 0 0-2.694 4.9l-76.934 76.57c-0.164-0.522-0.34-1.04-0.496-1.562l-101.25 100.634 0.346 0.228-55.66 55.704c-43.43-25.966-94.204-40.902-148.47-40.902-160.132 0-289.962 129.93-289.962 290.2 0 25.504 3.292 50.24 9.47 73.806l151.02-152.09c1.038-1.038 2.124-1.998 3.244-2.892a38.614 38.614 0 0 1 4.72-5.736c15.03-15.042 39.374-15.042 54.404 0l153.332 154.644c15.03 15.04 15.03 39.42 0 54.46-0.95 0.952-1.94 1.842-2.96 2.674a38.666 38.666 0 0 1-4.44 5.336L325.64 781.316a290.02 290.02 0 0 0 71.268 8.854c160.134 0 289.944-129.932 289.944-290.21 0-2.976-0.06-5.936-0.15-8.89a38.74 38.74 0 0 1-0.826-7.956l0.29-3.06c-2.094-30.878-17.154-85.484-21.216-96.16-2.708-7.116-9.3-18.26-19.778-33.432 11.016-11.848 17.608-18.858 19.778-21.028l87.168-86.584 0.322 0.344 33.866-34.44 15.426-15.38 78.606-80.244c1.864-1.114 3.684-2.298 5.434-3.57l15.898-15.852a71.614 71.614 0 0 0 13.814-42.38c-0.002-39.714-32.182-71.924-71.86-71.924z"  horiz-adv-x="1024" />

    
    <glyph glyph-name="fuzhi" unicode="&#59025;" d="M648.54 658.27h-480c-37.756 0-68.54-30.892-68.54-68.54V-27.46C100-65.216 130.892-96 168.54-96h480c37.758 0 68.54 30.892 68.54 68.54V589.73c0 37.648-30.89 68.54-68.54 68.54z m0-685.73h-480V589.73h480V-27.46zM854.164 864h-480c-37.758 0-68.54-30.892-68.54-68.54v-68.54h68.54V795.46h480v-617.19h-68.54v-68.54h68.54c37.756 0 68.54 30.892 68.54 68.54V795.46C922.812 833.108 891.92 864 854.164 864z"  horiz-adv-x="1024" />

    
    <glyph glyph-name="shanchu" unicode="&#59027;" d="M953.6 686.222H742.4V757.334C742.4 816 690.56 864 627.2 864H396.8c-63.36 0-115.2-48-115.2-106.666v-71.112H70.4c-21.12 0-38.4-16-38.4-35.556 0-19.554 17.28-35.554 38.4-35.554H128V46.22C128-32 197.12-96 281.6-96h460.8c84.48 0 153.6 64 153.6 142.222V615.112h57.6c21.12 0 38.4 16 38.4 35.554 0 19.556-17.28 35.556-38.4 35.556zM358.4 757.334c0 19.554 17.28 35.554 38.4 35.554h230.4c21.12 0 38.4-16 38.4-35.554v-71.112H358.4V757.334zM819.2 46.22c0-39.11-34.56-71.11-76.8-71.11H281.6c-42.24 0-76.8 32-76.8 71.11V615.112h614.4V46.22zM396.8 472.888c-21.12 0-38.4-16-38.4-35.554v-284.446c0-19.554 17.28-35.554 38.4-35.554 21.12 0 38.4 16 38.4 35.554V437.334c0 19.554-17.28 35.554-38.4 35.554z m230.4 0c-21.12 0-38.4-16-38.4-35.554v-284.446c0-19.554 17.28-35.554 38.4-35.554 21.12 0 38.4 16 38.4 35.554V437.334c0 19.554-17.28 35.554-38.4 35.554z"  horiz-adv-x="1024" />

    
    <glyph glyph-name="jianhao1" unicode="&#59029;" d="M512 896C229.2 896 0 666.8 0 384s229.2-512 512-512 512 229.2 512 512S794.8 896 512 896z m311.1-823.1c-40.4-40.4-87.5-72.2-139.9-94.3-54.2-23-111.8-34.6-171.2-34.6-59.4 0-117 11.6-171.2 34.5-52.4 22.2-99.4 53.9-139.9 94.3-40.4 40.4-72.2 87.5-94.3 139.9C83.6 267 72 324.6 72 384c0 59.4 11.6 117 34.5 171.2 22.2 52.4 53.9 99.4 94.3 139.9 40.4 40.4 87.5 72.2 139.9 94.3C395 812.4 452.6 824 512 824c59.4 0 117-11.6 171.2-34.5 52.4-22.2 99.4-53.9 139.9-94.3 40.4-40.4 72.2-87.5 94.3-139.9C940.4 501 952 443.4 952 384c0-59.4-11.6-117-34.5-171.2-22.2-52.4-53.9-99.5-94.4-139.9zM796.5 348h-569c-19.9 0-36 16.1-36 36s16.1 36 36 36h569c19.9 0 36-16.1 36-36s-16.1-36-36-36z"  horiz-adv-x="1024" />

    
    <glyph glyph-name="jianhao" unicode="&#59028;" d="M512 896C229.2 896 0 666.8 0 384s229.2-512 512-512 512 229.2 512 512S794.8 896 512 896z m320.5-512c0-19.9-16.1-36-36-36h-569c-19.9 0-36 16.1-36 36s16.1 36 36 36h569c19.9 0 36-16.1 36-36z"  horiz-adv-x="1024" />

    
    <glyph glyph-name="jiahao" unicode="&#59030;" d="M512 896C229.2 896 0 666.8 0 384s229.2-512 512-512 512 229.2 512 512S794.8 896 512 896z m256-512.5c0-19.9-16.1-36-36-36h-183.5v-182.5c0-19.9-16.1-36-36-36s-36 16.1-36 36v182.5H292c-19.9 0-36 16.1-36 36s16.1 36 36 36h184.5V603c0 19.9 16.1 36 36 36s36-16.1 36-36v-183.5H732c19.9 0 36-16.1 36-36z"  horiz-adv-x="1024" />

    
    <glyph glyph-name="jigou" unicode="&#59031;" d="M472 582h80v-167.5h-80zM784.25 224v107.078c0 14.762-13.394 26.73-29.916 26.73H275.666c-16.52 0-29.916-11.968-29.916-26.73V224H156v107.078C156 390.13 209.576 438 275.666 438h478.668C820.424 438 874 390.13 874 331.078V224h62c29.456 0 53.334-23.88 53.334-53.334v-213.332c0-29.456-23.88-53.334-53.334-53.334H722.666c-29.454 0-53.332 23.88-53.332 53.334V170.666c0 29.456 23.878 53.334 53.332 53.334h61.584zM874 224h-89.75v107.078c0 14.762-13.394 26.73-29.916 26.73H275.666c-16.52 0-29.916-11.968-29.916-26.73V224h56.916C332.122 224 356 200.12 356 170.666v-213.332C356-72.122 332.12-96 302.666-96H89.334C59.878-96 36-72.12 36-42.666V170.666C36 200.122 59.88 224 89.334 224H156v107.078C156 390.13 209.576 438 275.666 438h478.668C820.424 438 874 390.13 874 331.078V224zM432 784v-160h160V784h-160z m-26.666 80h213.332C648.122 864 672 840.12 672 810.666v-213.332C672 567.878 648.12 544 618.666 544H405.334C375.878 544 352 567.88 352 597.334V810.666C352 840.122 375.88 864 405.334 864zM116 144v-160h160v160H116z m633.334 0v-160h160v160h-160z"  horiz-adv-x="1024" />

    
    <glyph glyph-name="jiaoseqiehuan" unicode="&#59032;" d="M859.932 251.39l-50.284-35.364 33.522-47.58H408.86v-61.396H961.42l-101.486 144.34zM487.2-94.634l55.072 27.26-25.6 51.632h444.746v61.396H417.64l69.56-140.288zM709.06 622.74c0 132.178-106.914 239.306-238.774 239.306S231.512 754.918 231.512 622.738c0-132.178 106.916-239.306 238.774-239.306 131.86 0 238.774 107.128 238.774 239.306z m-238.774-162.346c-89.434 0-162.024 72.698-162.024 162.344 0 89.648 72.59 162.346 162.024 162.346s162.026-72.7 162.026-162.346-72.592-162.344-162.026-162.344zM694.14 316.7c-64.384 42.212-141.24 66.73-223.852 66.73-226.088 0-409.326-183.664-409.326-410.286h0.106c0-0.748-0.106-1.386-0.106-2.132 0-21.214 17.16-38.482 38.374-38.482 21.212 0 38.374 17.268 38.374 38.48 0 0.748 0 1.386-0.106 2.134h0.106c0 184.09 148.914 333.324 332.58 333.324 41.784 0 81.758-7.676 118.532-21.852 31.34 18.334 67.05 29.74 105.318 32.084z"  horiz-adv-x="1024" />

    
    <glyph glyph-name="jiahao3" unicode="&#59033;" d="M512 894C230.304 894 2 665.696 2 384s228.304-510 510-510 510 228.304 510 510S793.696 894 512 894z m309.884-819.884c-40.24-40.242-87.158-71.92-139.352-93.932-53.99-22.91-111.364-34.466-170.532-34.466-59.168 0-116.542 11.556-170.532 34.366-52.194 22.114-99.01 53.69-139.352 93.932-40.242 40.24-71.92 87.158-93.932 139.354C85.274 267.458 73.718 324.832 73.718 384c0 59.168 11.556 116.542 34.366 170.532 22.114 52.194 53.69 99.01 93.932 139.352 40.24 40.242 87.158 71.92 139.354 93.932C395.458 810.726 452.832 822.282 512 822.282c59.168 0 116.542-11.556 170.532-34.366 52.194-22.114 99.01-53.69 139.352-93.932 40.242-40.24 71.92-87.158 93.932-139.354 22.91-54.088 34.466-111.462 34.466-170.63 0-59.168-11.556-116.542-34.366-170.532-22.114-52.194-53.69-99.11-94.032-139.352zM731.14 419.36H548.36v182.782c0 19.822-16.038 35.86-35.86 35.86s-35.86-16.038-35.86-35.86v-182.782h-183.78c-19.82 0-35.858-16.038-35.858-35.86s16.038-35.86 35.86-35.86h183.78v-181.786c0-19.822 16.036-35.86 35.858-35.86 19.822 0 35.86 16.038 35.86 35.86V347.64h182.782c19.822 0 35.86 16.038 35.86 35.86s-16.038 35.86-35.86 35.86z"  horiz-adv-x="1024" />

    
    <glyph glyph-name="xinxi" unicode="&#59034;" d="M512 896C229.2 896 0 666.8 0 384s229.2-512 512-512 512 229.2 512 512S794.8 896 512 896z m311.1-823.1c-40.4-40.4-87.5-72.2-139.9-94.3-54.2-23-111.8-34.6-171.2-34.6-59.4 0-117 11.6-171.2 34.5-52.4 22.2-99.4 53.9-139.9 94.3-40.4 40.4-72.2 87.5-94.3 139.9C83.6 267 72 324.6 72 384c0 59.4 11.6 117 34.5 171.2 22.2 52.4 53.9 99.4 94.3 139.9 40.4 40.4 87.5 72.2 139.9 94.3C395 812.4 452.6 824 512 824c59.4 0 117-11.6 171.2-34.5 52.4-22.2 99.4-53.9 139.9-94.3 40.4-40.4 72.2-87.5 94.3-139.9C940.4 501 952 443.4 952 384c0-59.4-11.6-117-34.5-171.2-22.2-52.4-53.9-99.5-94.4-139.9zM630.2 190.4h-85.2V540.5c0 19.9-16.1 36-36 36h-96c-19.9 0-36-16.1-36-36s16.1-36 36-36h60V190.4h-85.2c-19.9 0-36-16.1-36-36s16.1-36 36-36H630.2c19.9 0 36 16.1 36 36s-16.1 36-36 36z m-157.2 485.1c0-19.882 16.118-36 36-36s36 16.118 36 36-16.118 36-36 36-36-16.118-36-36z"  horiz-adv-x="1024" />

    
    <glyph glyph-name="xinxi1" unicode="&#59035;" d="M512 896C229.2 896 0 666.8 0 384s229.2-512 512-512 512 229.2 512 512S794.8 896 512 896z m-3-184.5c19.9 0 36-16.1 36-36s-16.1-36-36-36-36 16.1-36 36 16.1 36 36 36z m157.2-557.1c0-19.9-16.1-36-36-36H387.8c-19.9 0-36 16.1-36 36s16.1 36 36 36h85.2V504.5h-60c-19.9 0-36 16.1-36 36s16.1 36 36 36h96c19.9 0 36-16.1 36-36V190.4h85.2c19.9 0 36-16.1 36-36z"  horiz-adv-x="1024" />

    
    <glyph glyph-name="back" unicode="&#59036;" d="M723.4 0.3c-9.6 0-19.3 3.2-27.4 9.6L272.2 350.8a43.736 43.736 0 0 0-16.3 34.1c0 13.2 6 25.8 16.3 34L694.2 758c18.8 15.1 46.3 12.1 61.4-6.7 15.1-18.8 12.1-46.3-6.7-61.4l-379.6-305L750.8 78c18.8-15.1 21.8-42.6 6.7-61.4-8.7-10.7-21.3-16.3-34.1-16.3z"  horiz-adv-x="1024" />

    
    <glyph glyph-name="zhankai" unicode="&#59037;" d="M895.7 595.9c0-9.6-3.2-19.3-9.6-27.4L545.2 144.7a43.736 43.736 0 0 0-34.1-16.3c-13.2 0-25.8 6-34 16.3L138 566.7c-15.1 18.8-12.1 46.3 6.7 61.4 18.8 15.1 46.3 12.1 61.4-6.7L511.2 241.8 818 623.3c15.1 18.8 42.6 21.8 61.4 6.7 10.7-8.7 16.3-21.3 16.3-34.1z"  horiz-adv-x="1024" />

    
    <glyph glyph-name="check-circle" unicode="&#59038;" d="M512 896C229.2 896 0 666.8 0 384s229.2-512 512-512 512 229.2 512 512S794.8 896 512 896z m260.3-356.4L412.8 178.9l-0.4-0.4a34.96 34.96 0 0 0-8.5-6.7c-5.6-3.2-11.8-4.7-17.8-4.7-12.5 0-24.7 6.5-31.3 18.2l-108.9 190.4c-9.9 17.3-3.9 39.3 13.4 49.1 17.3 9.9 39.3 3.9 49.1-13.4l85.4-149.5L721.3 590.4c14 14.1 36.8 14.1 50.9 0.1 14.1-14.1 14.1-36.9 0.1-50.9z"  horiz-adv-x="1024" />

    
    <glyph glyph-name="calendar" unicode="&#59039;" d="M888 768h-120V796c0 19.9-16.1 36-36 36s-36-16.1-36-36v-28H328V796c0 19.9-16.1 36-36 36s-36-16.1-36-36v-28H136c-39.8 0-72-32.2-72-72v-688c0-39.8 32.2-72 72-72h752c39.8 0 72 32.3 72 72V696c0 39.8-32.2 72-72 72zM136 696h120v-20c0-19.9 16.1-36 36-36s36 16.1 36 36v20h368v-20c0-19.9 16.1-36 36-36s36 16.1 36 36v20h120v-112H136v112z m752-688H136V512h752v-504zM288 384h64c17.7 0 32-14.3 32-32s-14.3-32-32-32h-64c-17.7 0-32 14.3-32 32s14.3 32 32 32z m192 0h64c17.7 0 32-14.3 32-32s-14.3-32-32-32h-64c-17.7 0-32 14.3-32 32s14.3 32 32 32z m192 0h64c17.7 0 32-14.3 32-32s-14.3-32-32-32h-64c-17.7 0-32 14.3-32 32s14.3 32 32 32z m-384-194h64c17.7 0 32-14.3 32-32s-14.3-32-32-32h-64c-17.7 0-32 14.3-32 32s14.3 32 32 32z m192 0h64c17.7 0 32-14.3 32-32s-14.3-32-32-32h-64c-17.7 0-32 14.3-32 32s14.3 32 32 32z"  horiz-adv-x="1024" />

    
    <glyph glyph-name="shouqi" unicode="&#59040;" d="M895.7 172.1c0 9.6-3.2 19.3-9.6 27.4L545.2 623.3a43.736 43.736 0 0 1-34.1 16.3c-13.2 0-25.8-6-34-16.3L138 201.3c-15.1-18.8-12.1-46.3 6.7-61.4 18.8-15.1 46.3-12.1 61.4 6.7L511.2 526.2 818 144.7c15.1-18.8 42.6-21.8 61.4-6.7 10.7 8.7 16.3 21.3 16.3 34.1z"  horiz-adv-x="1024" />

    
    <glyph glyph-name="check-circle-o" unicode="&#59041;" d="M721.3 590.4L393.8 261.9l-85.4 149.5c-9.9 17.3-31.8 23.3-49.1 13.4s-23.3-31.8-13.4-49.1l108.8-190.5c6.6-11.6 18.8-18.2 31.3-18.2 6.1 0 12.2 1.5 17.8 4.7 3.2 1.9 6.1 4.1 8.5 6.7l0.4 0.4L772.2 539.4c14 14.1 14 36.9-0.1 50.9-14 14.2-36.7 14.2-50.8 0.1zM512 896C229.2 896 0 666.8 0 384s229.2-512 512-512 512 229.2 512 512S794.8 896 512 896z m311.1-823.1c-40.4-40.4-87.5-72.2-139.9-94.3-54.2-23-111.8-34.6-171.2-34.6-59.4 0-117 11.6-171.2 34.5-52.4 22.2-99.4 53.9-139.9 94.3-40.4 40.4-72.2 87.5-94.3 139.9C83.6 267 72 324.6 72 384c0 59.4 11.6 117 34.5 171.2 22.2 52.4 53.9 99.4 94.3 139.9 40.4 40.4 87.5 72.2 139.9 94.3C395 812.4 452.6 824 512 824c59.4 0 117-11.6 171.2-34.5 52.4-22.2 99.4-53.9 139.9-94.3 40.4-40.4 72.2-87.5 94.3-139.9C940.4 501 952 443.4 952 384c0-59.4-11.6-117-34.5-171.2-22.2-52.4-53.9-99.5-94.4-139.9z"  horiz-adv-x="1024" />

    
    <glyph glyph-name="close" unicode="&#59042;" d="M567.7 384.1l254.8 254.6c15.4 15.4 15.4 40.3 0 55.6-15.4 15.4-40.3 15.4-55.6 0L512 439.8 257.1 694.4c-15.4 15.4-40.3 15.4-55.6 0-15.4-15.4-15.4-40.3 0-55.6l254.8-254.6-254.8-254.7c-15.4-15.4-15.4-40.3 0-55.6 7.7-7.7 17.8-11.5 27.8-11.5 10.1 0 20.1 3.8 27.8 11.5L512 328.5 766.9 73.8c7.7-7.7 17.7-11.5 27.8-11.5 10.1 0 20.1 3.8 27.8 11.5 15.4 15.4 15.4 40.3 0 55.6l-254.8 254.7z"  horiz-adv-x="1024" />

    
    <glyph glyph-name="close-circle-o" unicode="&#59043;" d="M717.2 589.8c-14.1 14-36.9 14-50.9-0.1L512 435l-154.3 154.7c-14 14.1-36.8 14.1-50.9 0.1-14.1-14-14.1-36.8-0.1-50.9L461.2 384l-154.5-154.9c-14-14.1-14-36.9 0.1-50.9 7-7 16.2-10.5 25.4-10.5s18.5 3.5 25.5 10.6L512 333l154.3-154.8c7-7.1 16.3-10.6 25.5-10.6s18.4 3.5 25.4 10.5c14.1 14 14.1 36.8 0.1 50.9L562.8 384l154.4 154.9c14.1 14.1 14.1 36.9 0 50.9zM512 896C229.2 896 0 666.8 0 384s229.2-512 512-512 512 229.2 512 512S794.8 896 512 896z m311.1-823.1c-40.4-40.4-87.5-72.2-139.9-94.3-54.2-23-111.8-34.6-171.2-34.6-59.4 0-117 11.6-171.2 34.5-52.4 22.2-99.4 53.9-139.9 94.3-40.4 40.4-72.2 87.5-94.3 139.9C83.6 267 72 324.6 72 384c0 59.4 11.6 117 34.5 171.2 22.2 52.4 53.9 99.4 94.3 139.9 40.4 40.4 87.5 72.2 139.9 94.3C395 812.4 452.6 824 512 824c59.4 0 117-11.6 171.2-34.5 52.4-22.2 99.4-53.9 139.9-94.3 40.4-40.4 72.2-87.5 94.3-139.9C940.4 501 952 443.4 952 384c0-59.4-11.6-117-34.5-171.2-22.2-52.4-53.9-99.5-94.4-139.9z"  horiz-adv-x="1024" />

    
    <glyph glyph-name="close-circle" unicode="&#59044;" d="M512 896C229.2 896 0 666.8 0 384s229.2-512 512-512 512 229.2 512 512S794.8 896 512 896z m205.3-666.9c14-14.1 14-36.9-0.1-50.9-7-7-16.2-10.5-25.4-10.5s-18.5 3.5-25.5 10.6L512 333l-154.3-154.7c-7-7.1-16.3-10.6-25.5-10.6s-18.4 3.5-25.4 10.5c-14.1 14-14.1 36.8-0.1 50.9L461.2 384l-154.5 154.9c-14 14.1-14 36.9 0.1 50.9s36.9 14 50.9-0.1L512 435l154.3 154.8c14 14.1 36.8 14.1 50.9 0.1 14.1-14 14.1-36.8 0.1-50.9L562.8 384l154.5-154.9z"  horiz-adv-x="1024" />

    
    <glyph glyph-name="check" unicode="&#59045;" d="M328 79.3c-1.8 0-3.5 0.1-5.3 0.4-12.4 1.7-23.2 9-29.4 19.8L134 378.2c-11 19.2-4.3 43.6 14.9 54.6s43.6 4.3 54.6-14.9l133.2-233.2 491 492.5c15.6 15.6 40.9 15.7 56.6 0.1 15.6-15.6 15.7-40.9 0.1-56.6l-526.2-527.8-1.9-1.9c-7.6-7.6-17.8-11.7-28.3-11.7z"  horiz-adv-x="1024" />

    
    <glyph glyph-name="download" unicode="&#59046;" d="M488.5 111.7c6.7-6.7 15.6-10.1 24.5-10.1s17.7 3.4 24.5 10.1l155.9 155.9c13.5 13.5 13.5 35.4 0 48.9-6.5 6.5-15.2 10.1-24.4 10.1s-17.9-3.6-24.4-10.1l-96.9-96.9V797.4c0 19.1-15.5 34.6-34.6 34.6s-34.6-15.5-34.6-34.6v-577.8l-96.9 96.9c-13.5 13.5-35.4 13.5-48.8 0-13.5-13.5-13.5-35.4-0.1-48.9l155.8-155.9zM925.4 255.6c-19.1 0-34.6-15.5-34.6-34.6v-195.4c0-11.3-9.2-20.6-20.6-20.6H153.7c-11.3 0-20.6 9.2-20.6 20.6v195.5c0 19.1-15.5 34.6-34.6 34.6S64 240.1 64 221.1V-1.8c0-34.3 27.9-62.1 62.1-62.1h771.8C932.2-63.9 960-36 960-1.8V221.1c0 19-15.5 34.5-34.6 34.5z"  horiz-adv-x="1024" />

    
    <glyph glyph-name="left-square-o" unicode="&#59047;" d="M888.5 760.5V7.4H135.5V760.5h753z m0 72H135.5c-39.8 0-72-32.2-72-72V7.4c0-39.8 32.2-72 72-72H888.6c39.8 0 72 32.2 72 72V760.5c-0.1 39.8-32.3 72-72.1 72zM331.3 357.8l235.8-221c14.5-13.6 37.3-12.9 50.9 1.6 13.6 14.5 12.9 37.3-1.6 50.9L408.7 384l207.8 194.8c14.5 13.6 15.2 36.4 1.6 50.9s-36.4 15.2-50.9 1.6l-235.8-221c-7.3-6.8-11.4-16.3-11.4-26.3s4.1-19.5 11.3-26.2z"  horiz-adv-x="1024" />

    
    <glyph glyph-name="paperclip" unicode="&#59048;" d="M862.366 651.134c-47.1 46.5-109.7 72.3-176.5 72.4h-0.7c-32.1 0-63.4-6-93.2-17.8-30.9-12.3-58.7-30.4-82.5-53.9l-232.9-230.2c-26.9-26.6-41.6-62.1-41.5-100 0.1-37.8 15-73.3 42-100 27-26.7 62.8-41.4 101-41.5h0.3c38.1 0 73.8 14.6 100.6 41l204.4 202c6.8 6.7 10.5 15.6 10.5 25 0 9.5-3.7 18.4-10.5 25-6.7 6.7-15.7 10.3-25.2 10.3s-18.5-3.7-25.2-10.3l-204.4-202c-13.3-13.2-31.2-20.4-50.3-20.4h-0.1c-19.3 0.1-37.4 7.5-50.8 20.8-13.5 13.4-21 31.2-21 50.2-0.1 18.9 7.2 36.6 20.6 49.8l232.9 230.3c33.2 32.9 77.8 51 125.4 51h0.5c47.8-0.1 92.7-18.5 126.4-51.7 33.6-33.3 52.2-77.6 52.3-124.8 0.1-47.2-18.2-91.4-51.5-124.3l-247.1-244.5c-49.4-48.6-115.4-75.4-185.8-75.4h-0.7c-70.7 0.2-137.1 27.4-186.9 76.6-49.8 49.2-77.3 114.8-77.4 184.7-0.2 69.9 27 135.3 76.4 184.1l319 315.4c6.8 6.7 10.5 15.6 10.5 25 0 9.5-3.7 18.4-10.5 25-6.8 6.7-15.8 10.4-25.3 10.4s-18.5-3.7-25.2-10.3l-319-315.5c-31.8-31.4-56.4-68.3-73.2-109.5-16.1-39.8-24.2-81.8-24.1-124.8 0.1-43.1 8.4-85.1 24.8-124.8 16.9-41.2 41.6-78.1 73.6-109.7 31.8-31.5 69.2-56 110.9-72.8 40-16.1 82.5-24.3 126.2-24.5h0.9c43.4 0 85.5 8 125.3 23.9 41.6 16.5 78.9 40.8 110.7 72.3l247.1 244.4c23.7 23.5 42.1 50.9 54.5 81.6 12 29.7 18.1 60.9 18 93-0.3 66-26.3 128-73.3 174.5z"  horiz-adv-x="1024" />

    
    <glyph glyph-name="exclamation-circle" unicode="&#59049;" d="M512 896C229.2 896 0 666.8 0 384s229.2-512 512-512 512 229.2 512 512S794.8 896 512 896z m-40-231c0 22.1 17.9 40 40 40s40-17.9 40-40V296c0-22.1-17.9-40-40-40s-40 17.9-40 40V665zM512 102c-24.9 0-45 20.1-45 45S487.1 192 512 192s45-20.1 45-45c0-24.8-20.1-45-45-45z"  horiz-adv-x="1024" />

    
    <glyph glyph-name="plus" unicode="&#59050;" d="M863.5 420H545V730.5c0 19.9-16.1 36-36 36s-36-16.1-36-36V420H161.5c-19.9 0-36-16.1-36-36s16.1-36 36-36H473v-311.5c0-19.9 16.1-36 36-36s36 16.1 36 36V348h318.5c19.9 0 36 16.1 36 36s-16.1 36-36 36z"  horiz-adv-x="1024" />

    
    <glyph glyph-name="exclamation-circle-o" unicode="&#59051;" d="M512 824c59.4 0 117-11.6 171.2-34.5 52.4-22.2 99.4-53.9 139.9-94.3 40.4-40.4 72.2-87.5 94.3-139.9C940.4 501 952 443.4 952 384c0-59.4-11.6-117-34.5-171.2-22.2-52.4-53.9-99.4-94.3-139.9-40.4-40.4-87.5-72.2-139.9-94.3C629-44.4 571.4-56 512-56c-59.4 0-117 11.6-171.2 34.5-52.4 22.2-99.4 53.9-139.9 94.3-40.4 40.4-72.2 87.5-94.3 139.9C83.6 267 72 324.6 72 384c0 59.4 11.6 117 34.5 171.2 22.2 52.4 53.9 99.4 94.3 139.9 40.4 40.4 87.5 72.2 139.9 94.3C395 812.4 452.6 824 512 824z m0 72C229.2 896 0 666.8 0 384s229.2-512 512-512 512 229.2 512 512S794.8 896 512 896z m0-640c-22.1 0-40 17.9-40 40V665c0 22.1 17.9 40 40 40s40-17.9 40-40V296c0-22.1-17.9-40-40-40z m-45-109c0-24.852 20.148-45 45-45s45 20.148 45 45S536.852 192 512 192s-45-20.148-45-45z"  horiz-adv-x="1024" />

    
    <glyph glyph-name="next" unicode="&#59052;" d="M300.6 0.3c9.6 0 19.3 3.2 27.4 9.6L751.8 350.8c10.3 8.3 16.3 20.8 16.3 34.1 0 13.2-6 25.8-16.3 34L329.8 758c-18.8 15.1-46.3 12.1-61.4-6.7-15.1-18.8-12.1-46.3 6.7-61.4l379.6-305.1L273.2 78c-18.8-15.1-21.8-42.6-6.7-61.4 8.7-10.7 21.3-16.3 34.1-16.3z"  horiz-adv-x="1024" />

    
    <glyph glyph-name="menufold" unicode="&#59053;" d="M98.8 695.2h828.1c19.9 0 36 16.1 36 36s-16.1 36-36 36H98.8c-19.9 0-36-16.1-36-36s16.1-36 36-36z m826.1-245H359.8c-19.9 0-36-16.1-36-36s16.1-36 36-36h565.1c19.9 0 36 16.1 36 36s-16.2 36-36 36z m2-378H101.8c-19.9 0-36-16.1-36-36s16.1-36 36-36h825.1c19.9 0 36 16.1 36 36s-16.2 36-36 36zM197.1 281c7-6.9 16.1-10.3 25.2-10.3 9.3 0 18.6 3.6 25.7 10.8 13.9 14.2 13.8 37-0.4 50.9l-95.4 93.8 93.7 88.3c14.5 13.6 15.2 36.4 1.5 50.9-13.6 14.5-36.4 15.1-50.9 1.5l-120.9-114c-7.1-6.7-11.2-16-11.3-25.8-0.1-9.8 3.8-19.2 10.8-26.1l122-120z"  horiz-adv-x="1024" />

    
    <glyph glyph-name="poweroff" unicode="&#59054;" d="M512 512c19.9 0 36 16.1 36 36V860c0 19.9-16.1 36-36 36s-36-16.1-36-36v-312c0-19.9 16.1-36 36-36zM512-128c-69.1 0-136.2 13.5-199.3 40.2C251.7-62 197-25 150 22c-47 47-84 101.7-109.8 162.7C13.5 247.8 0 314.9 0 384c0 81.3 18.5 159.1 55 231.2 34.8 68.7 85.7 129.7 147.2 176.5 15.8 12 38.4 9 50.4-6.8s9-38.4-6.8-50.4c-52.8-40.2-96.6-92.7-126.5-151.7C87.9 520.7 72 453.9 72 384c0-59.4 11.6-117 34.6-171.3 22.2-52.4 53.9-99.5 94.3-139.9 40.4-40.4 87.5-72.2 139.9-94.3C395-44.4 452.6-56 512-56c59.4 0 117 11.6 171.3 34.6 52.4 22.2 99.5 53.9 139.9 94.3 40.4 40.4 72.2 87.5 94.3 139.9C940.4 267 952 324.6 952 384c0 69.9-15.9 136.7-47.3 198.6-29.9 59.1-73.7 111.5-126.5 151.7-15.8 12-18.9 34.6-6.8 50.4 12 15.8 34.6 18.9 50.4 6.8 61.4-46.8 112.3-107.8 147.2-176.5 36.5-72.1 55-149.8 55-231.2 0-69.1-13.5-136.2-40.2-199.3C958 123.7 921 69 874 22s-101.8-83.9-162.7-109.7C648.2-114.5 581.1-128 512-128z"  horiz-adv-x="1024" />

    
    <glyph glyph-name="right-square-o" unicode="&#59055;" d="M888.5 760.5V7.4H135.5V760.5h753z m0 72H135.5c-39.8 0-72-32.2-72-72V7.4c0-39.8 32.2-72 72-72H888.6c39.8 0 72 32.2 72 72V760.5c-0.1 39.8-32.3 72-72.1 72zM704.9 384c0 10-4.1 19.5-11.4 26.3l-235.8 221c-14.5 13.6-37.3 12.9-50.9-1.6-13.6-14.5-12.9-37.3 1.6-50.9L616.2 384l-207.7-194.8c-14.5-13.6-15.2-36.4-1.6-50.9s36.4-15.2 50.9-1.6l235.8 221c7.2 6.8 11.3 16.3 11.3 26.3z"  horiz-adv-x="1024" />

    
    <glyph glyph-name="question-circle-o" unicode="&#59056;" d="M512 896C229.2 896 0 666.8 0 384s229.2-512 512-512 512 229.2 512 512S794.8 896 512 896z m311.1-823.1c-40.4-40.4-87.5-72.2-139.9-94.3-54.2-23-111.8-34.6-171.2-34.6-59.4 0-117 11.6-171.2 34.5-52.4 22.2-99.4 53.9-139.9 94.3-40.4 40.4-72.2 87.5-94.3 139.9C83.6 267 72 324.6 72 384c0 59.4 11.6 117 34.5 171.2 22.2 52.4 53.9 99.4 94.3 139.9 40.4 40.4 87.5 72.2 139.9 94.3C395 812.4 452.6 824 512 824c59.4 0 117-11.6 171.2-34.5 52.4-22.2 99.4-53.9 139.9-94.3 40.4-40.4 72.2-87.5 94.3-139.9C940.4 501 952 443.4 952 384c0-59.4-11.6-117-34.5-171.2-22.2-52.4-53.9-99.5-94.4-139.9z m-316.3 159.2c-1.2 0-2.4 0.1-3.6 0.2-19.8 1.9-34.2 19.6-32.3 39.4 4.9 49.9 41.5 90.2 81.8 130.5 64.5 64.5 65.6 85 66.7 106.7 1.3 25.3-8 49.8-26.4 69.1-20.9 22-50.5 34.6-81.2 34.6h-0.2c-59.1-0.1-107.3-48.3-107.3-107.5 0-19.9-16.1-36-36-36s-36 16.1-36 36c0 47.9 18.6 92.9 52.4 126.8 33.8 33.9 78.8 52.6 126.7 52.7 50.5 0.1 99.3-20.7 133.8-57 32.1-33.8 48.5-77.3 46.1-122.5-2.5-46.3-16.7-82.8-87.7-153.8-36-36-58.7-63-61-86.7-1.8-18.6-17.5-32.5-35.8-32.5z m-44.6-105.3a43.3 43.3 0 1 1 86.6 0c0 23.914-19.386 43.3-43.3 43.3-23.914 0-43.3-19.386-43.3-43.3z"  horiz-adv-x="1024" />

    
    <glyph glyph-name="question-circle" unicode="&#59057;" d="M512 896C229.2 896 0 666.8 0 384s229.2-512 512-512 512 229.2 512 512S794.8 896 512 896z m-6.5-812.6c-23.9 0-43.3 19.4-43.3 43.3S481.6 170 505.5 170s43.3-19.4 43.3-43.3-19.4-43.3-43.3-43.3z m185.8 421.6c-2.5-46.3-16.7-82.8-87.7-153.8-36-36-58.7-63-61-86.7-1.8-18.6-17.5-32.5-35.8-32.5-1.2 0-2.4 0.1-3.6 0.2-19.8 1.9-34.2 19.6-32.3 39.4 4.9 49.9 41.5 90.2 81.8 130.5 64.5 64.5 65.6 85 66.7 106.7 1.3 25.3-8 49.8-26.4 69.1-20.9 22-50.5 34.6-81.2 34.6h-0.2c-59.1-0.1-107.3-48.3-107.3-107.5 0-19.9-16.1-36-36-36s-36 16.1-36 36c0 47.9 18.6 92.9 52.4 126.8 33.8 33.9 78.8 52.6 126.7 52.7 50.5 0.1 99.3-20.7 133.8-57 32.2-33.7 48.5-77.2 46.1-122.5z"  horiz-adv-x="1024" />

    
    <glyph glyph-name="reload" unicode="&#59058;" d="M954.167568 391.861492c-3.299997 19.599981-21.799979 32.897968-41.397959 29.597971-19.597981-3.299997-32.895968-21.799979-29.597971-41.397959 3.199997-18.997981 4.799995-39.795961 4.799995-60.293941 0-100.393902-39.095962-194.78581-110.091893-265.779741-70.993931-70.995931-165.387838-109.993893-265.87974-109.993892-100.391902 0-194.88581 39.097962-265.87974 110.091892-70.995931 70.995931-110.091892 165.487838-110.091893 265.879741 0 100.393902 39.095962 194.88581 110.091893 265.87974 70.993931 70.995931 165.487838 110.093892 265.87974 110.093892 4.199996 0 8.399992-0.1 12.599988-0.199999l-81.79392-81.793921c-14.099986-14.099986-14.099986-36.897964 0-50.89595 14.097986-14.099986 36.895964-14.099986 50.89595 0l135.789867 135.789868c14.099986 14.099986 14.099986 36.895964 0 50.89595L493.700018 885.42501c-14.099986 14.099986-36.897964 14.099986-50.89595 0-14.099986-14.099986-14.099986-36.897964 0-50.89595L509.400003 767.933125c-59.495942-0.3-117.291885-12.199988-171.687833-35.197966-53.395948-22.597978-101.291901-54.895946-142.387861-95.991906-41.09796-41.09796-73.395928-88.993913-95.993906-142.389861-23.397977-55.295946-35.297966-113.891889-35.297966-174.385829 0-60.495941 11.899988-119.091884 35.199966-174.38783 22.595978-53.395948 54.893946-101.291901 95.991906-142.389861 41.09596-41.09596 88.991913-73.393928 142.387861-95.991906C392.908116-116.202012 451.504059-128 512-128c60.495941 0 119.091884 11.799988 174.38783 35.197966 53.395948 22.497978 101.291901 54.795946 142.387861 95.891906 41.09796 41.09796 73.395928 88.993913 95.993906 142.289861 23.397977 55.195946 35.197966 113.891889 35.197966 174.38783 0 24.697976-1.999998 48.995952-5.799995 72.093929z"  horiz-adv-x="1024" />

    
    <glyph glyph-name="upload" unicode="&#59059;" d="M488.5 821.9c6.7 6.7 15.6 10.1 24.5 10.1s17.7-3.4 24.5-10.1l155.8-155.9c13.5-13.5 13.5-35.4 0-48.9-6.5-6.5-15.2-10.1-24.4-10.1s-17.9 3.6-24.4 10.1L547.6 714v-577.8c0-19.1-15.5-34.6-34.6-34.6s-34.6 15.5-34.6 34.6V714l-96.9-96.9c-13.5-13.5-35.4-13.5-48.8 0-13.5 13.5-13.5 35.4-0.1 48.9l155.9 155.9zM925.4 255.6c-19.1 0-34.6-15.5-34.6-34.6v-195.4c0-11.3-9.2-20.6-20.6-20.6H153.7c-11.3 0-20.6 9.2-20.6 20.6v195.5c0 19.1-15.5 34.6-34.6 34.6S64 240.1 64 221.1V-1.8c0-34.3 27.9-62.1 62.1-62.1h771.8C932.2-63.9 960-36 960-1.8V221.1c0 19-15.5 34.5-34.6 34.5z"  horiz-adv-x="1024" />

    
    <glyph glyph-name="setting" unicode="&#59060;" d="M961.8 456.4l-3.8 24-73.3 24.5c-6.4 19.8-14.4 39.2-23.9 57.7l34.6 69.1-14.2 19.8C852.4 690.8 818 725.2 778.9 753.6l-19.7 14.2-69.1-34.6c-18.6 9.5-37.9 17.5-57.7 23.9L608 830.2l-23.8 3.7c-26.5 4.2-49.4 6.2-72.2 6.2-22.2 0-45.2-2-72.3-6.3l-24-3.8-24.4-73.4c-20.2-6.6-39.6-14.6-57.7-23.8l-69 34.7-19.7-14.2c-39.2-28.4-73.6-62.7-102.2-102.1l-14.2-19.8 34.6-69.1c-9.4-18.5-17.4-37.8-23.8-57.6L66 480.4l-3.8-24C58 429.9 56 406.3 56 384c0-22.4 2-46 6.2-72.3l3.8-24 73.3-24.5c6.4-19.8 14.4-39.2 23.9-57.7L128.8 136.6l14.2-19.6c14.8-20.6 30.1-38.7 46.7-55.4 15.5-15.6 33.6-30.9 55.3-46.8l19.7-14.2 69 34.6c18.6-9.5 37.9-17.6 57.7-23.9l24.4-73.4 24-3.8c26.3-4.2 49.9-6.2 72.2-6.2 22.3 0 45.9 2 72.3 6.2l24 3.8 24.4 73.4c19.6 6.4 38.9 14.4 57.6 23.8l69.1-34.6 19.7 14.2c21.5 15.5 39.6 30.8 55.3 46.8 16.3 16.3 31.5 34.5 46.7 55.4l14.2 19.8-34.6 69.1c9.5 18.5 17.5 37.8 23.9 57.7L957.9 288l3.8 24c4.2 26.3 6.2 49.9 6.2 72.2 0.3 22.1-1.7 45.8-6.1 72.2z m-65.5-71.6v-0.5c0-13.5-0.9-27.2-2.6-41.9l-35.4-11.8-31.3-10.6-9.7-31.5c-5.5-18.2-12.8-35.9-21.7-52.7l-15.4-29.1L811.6 144c-9.2-11.6-18.3-21.9-27.8-31.4l-0.2-0.2c-9.3-9.4-19.6-18.5-31.2-27.6l-62.5 31.3-29-15.1c-17.1-8.9-35.1-16.3-53.4-22.1l-31.3-9.8-10.2-31-11.8-35.4c-14.6-1.8-28.4-2.6-41.9-2.6-13.4 0-27.2 0.9-41.9 2.6l-11.8 35.4-10.3 31.3-31.5 9.7c-18.6 5.7-36.3 13-52.7 21.7l-29.2 15.2-29.5-14.7-33.3-16.6c-11.6 9.2-21.9 18.3-31.4 27.8-9.7 9.7-18.8 20-27.8 31.4l31.2 62.5-15.2 29c-9.1 17.4-16.5 35.2-21.9 53l-9.7 31.5L130.7 342c-1.8 14.6-2.6 28.4-2.6 41.9s0.9 27.2 2.6 41.9l66.4 22.1 9.7 31.4c5.6 18.1 13 36 21.9 53.2l15.2 29-14.6 29.3-16.6 33.3c17.5 21.8 37.4 41.7 59.2 59.2l62.6-31.3 29.1 15.3c16.8 8.8 34.7 16.2 53.2 22l31.3 9.8 10.4 31.1 11.8 35.4c15.1 1.7 28.8 2.6 41.8 2.6 13.4 0 27.2-0.9 41.8-2.6l22.2-66.3 31.3-9.7c18.2-5.7 36.1-13.1 53.2-21.9l29-15.2 62.5 31.3c21.8-17.5 41.8-37.4 59.5-59.3L780.4 562l15-28.9c8.9-17.2 16.4-35.2 22.1-53.5l9.8-31.3 31.1-10.4 35.4-11.8c1.9-15 2.7-28.5 2.5-41.3zM512.2 558.3c-96.1 0-174.3-78.2-174.3-174.3 0-96.1 78.2-174.3 174.3-174.3 96.1 0 174.3 78.2 174.3 174.3 0 96.1-78.2 174.3-174.3 174.3z m72.3-246.6c-19.3-19.3-45-30-72.3-30-27.3 0-53 10.6-72.3 30-19.3 19.3-30 45-30 72.3 0 27.3 10.6 53 30 72.3 19.3 19.3 45 30 72.3 30 27.3 0 53-10.6 72.3-30 19.3-19.4 30-45 30-72.3 0-27.3-10.7-53-30-72.3z"  horiz-adv-x="1024" />

    
    <glyph glyph-name="caretdown" unicode="&#59061;" d="M76.3 599.7L479.4 110.6c16.9-18.9 46.5-18.9 63.4 0l405.1 489.1c24.4 27.4 5 70.8-31.7 70.8H108.1c-36.8 0-56.3-43.4-31.8-70.8z"  horiz-adv-x="1024" />

    
    <glyph glyph-name="caretright" unicode="&#59062;" d="M296.7 819.7L785.8 416.6c18.9-16.9 18.9-46.5 0-63.4L296.7-51.7c-27.4-24.4-70.8-5-70.8 31.7V788.1c0.1 36.6 43.4 56.1 70.8 31.6z"  horiz-adv-x="1024" />

    
    <glyph glyph-name="caretleft" unicode="&#59063;" d="M729.3 819.7l-489.2-403c-18.9-16.9-18.9-46.5 0-63.4L729.2-51.8c27.4-24.4 70.8-5 70.8 31.7V788.1c0 36.6-43.4 56.1-70.7 31.6z"  horiz-adv-x="1024" />

    
    <glyph glyph-name="caretup" unicode="&#59064;" d="M76.3 167.2L481.4 656.3c16.9 18.9 46.5 18.9 63.4 0L947.9 167.2c24.4-27.4 5-70.8-31.7-70.8H107.9c-36.6 0-56.1 43.4-31.6 70.8z"  horiz-adv-x="1024" />

    
    <glyph glyph-name="search" unicode="&#59066;" d="M970.834-23.834l-205.7 205.6c55.1 66.5 88.2 151.8 88.2 244.9 0 212.1-171.9 384-384 384s-384-171.9-384-384 171.9-384 384-384c93.1 0 178.4 33.1 244.9 88.2l205.7-205.7c7-7 16.2-10.5 25.5-10.5s18.4 3.5 25.5 10.5c13.9 14.1 13.9 36.9-0.1 51z m-380.1 163c-38.4-16.3-79.2-24.5-121.4-24.5s-83 8.2-121.4 24.5c-37.1 15.7-70.5 38.2-99.2 66.9-28.7 28.7-51.2 62.1-66.9 99.2-16.3 38.4-24.5 79.2-24.5 121.4s8.2 83 24.5 121.4c15.7 37.1 38.2 70.5 66.9 99.2 28.7 28.7 62.1 51.2 99.2 66.9 38.4 16.3 79.2 24.5 121.4 24.5s83-8.2 121.4-24.5c37.1-15.7 70.5-38.2 99.2-66.9 28.7-28.7 51.2-62.1 66.9-99.2 16.3-38.4 24.5-79.2 24.5-121.4s-8.2-83-24.5-121.4c-15.7-37.1-38.2-70.5-66.9-99.2-28.7-28.7-62-51.2-99.2-66.9z"  horiz-adv-x="1024" />

    
    <glyph glyph-name="doubleright" unicode="&#59067;" d="M431 16.6c-15.1 18.8-12.1 46.3 6.7 61.4L819.2 384.9l-379.6 305c-18.8 15.1-21.8 42.6-6.7 61.4 15.1 18.8 42.6 21.8 61.4 6.7l422-339.1c10.3-8.2 16.3-20.8 16.3-34 0-13.3-6-25.8-16.3-34.1l-423.8-340.9c-8.1-6.4-17.8-9.6-27.4-9.6-12.8 0-25.4 5.6-34.1 16.3z m-330 0c-15.1 18.8-12.1 46.3 6.7 61.4L489.2 384.9 109.6 689.9c-18.8 15.1-21.8 42.6-6.7 61.4 15.1 18.8 42.6 21.8 61.4 6.7l422-339.1c10.3-8.2 16.3-20.8 16.3-34 0-13.3-6-25.8-16.3-34.1L162.5 9.9c-8.1-6.4-17.8-9.6-27.4-9.6-12.8 0-25.4 5.6-34.1 16.3z"  horiz-adv-x="1024" />

    
    <glyph glyph-name="list" unicode="&#59065;" d="M98.8 695.2h828.1c19.9 0 36 16.1 36 36s-16.1 36-36 36H98.8c-19.9 0-36-16.1-36-36s16.1-36 36-36z m567.1-244H100.8c-19.9 0-36-16.1-36-36s16.1-36 36-36h565.1c19.9 0 36 16.1 36 36s-16.2 36-36 36z m261-379H101.8c-19.9 0-36-16.1-36-36s16.1-36 36-36h825.1c19.9 0 36 16.1 36 36s-16.2 36-36 36z"  horiz-adv-x="1024" />

    
    <glyph glyph-name="doubleleft" unicode="&#59068;" d="M558.9 0.3c-9.6 0-19.3 3.2-27.4 9.6L107.7 350.8a43.736 43.736 0 0 0-16.3 34.1c0 13.2 6 25.8 16.3 34L529.7 758c18.8 15.1 46.3 12.1 61.4-6.7 15.1-18.8 12.1-46.3-6.7-61.4l-379.6-305L586.3 78c18.8-15.1 21.8-42.6 6.7-61.4-8.7-10.7-21.3-16.3-34.1-16.3z m330 0c-9.6 0-19.3 3.2-27.4 9.6L437.7 350.8a43.736 43.736 0 0 0-16.3 34.1c0 13.2 6 25.8 16.3 34L859.7 758c18.8 15.1 46.3 12.1 61.4-6.7 15.1-18.8 12.1-46.3-6.7-61.4l-379.6-305L916.3 78c18.8-15.1 21.8-42.6 6.7-61.4-8.7-10.7-21.3-16.3-34.1-16.3z"  horiz-adv-x="1024" />

    
    <glyph glyph-name="module" unicode="&#59069;" d="M514.832 383.56V795.154H116.322C72.03 795.152 36 759.122 36 714.832v-728.52c0-44.29 36.03-80.32 80.32-80.32h328.06v-1.492h398.51c44.29 0 80.32 36.03 80.32 80.32V383.56H514.832zM104.848 714.834c0 6.31 5.162 11.474 11.474 11.474H446.1v-341.252H104.848V714.832z m0-728.404V316.206h339.53v-341.252H116.322c-6.312 0-11.474 5.162-11.474 11.474z m749.516-1.378c0-6.31-5.164-11.474-11.474-11.474H514.832v341.14h339.532v-329.666zM940.652 864H576.566v-410.1h410.1V818.1C986.548 843.46 966.008 864 940.65 864z m-22.95-341.138H645.412V795.152H917.82v-272.29h-0.116z"  horiz-adv-x="1024" />

    
    <glyph glyph-name="resource" unicode="&#59070;" d="M884.432 793.582v-821.094H139.576V793.582h744.856z m37.29 68.39H102.288c-20.626 0-37.29-15.28-37.29-34.196v-889.48c0-18.916 16.664-34.196 37.29-34.196H921.72c20.626 0 37.29 15.28 37.29 34.194V827.776c0 18.914-16.78 34.196-37.29 34.196zM622.708 606.44l-62.404-45.2 102.628-74.336h-423.32v-63.658h529.94c11.572 0 23.28 3.194 32.1 9.68 8.54 6.184 12.81 14.466 12.534 22.648v0.7c0 11.174-8.266 20.952-20.664 26.34l-170.814 123.826z m191.616-283.072h-530.08c-11.57 0-23.28-3.192-32.096-9.68-8.54-6.184-12.81-14.466-12.534-22.648v-0.7c0-11.174 8.264-20.952 20.662-26.34l170.954-123.824 62.4 45.2-102.624 74.334h423.318v63.658z"  horiz-adv-x="1024" />

    


  </font>
</defs>
</svg>
